<svg width="170" height="52" viewBox="0 0 170 52" fill="none" xmlns="http://www.w3.org/2000/svg">
<g clip-path="url(#clip0_77021_27532)">
<g clip-path="url(#clip1_77021_27532)">
<g filter="url(#filter0_dd_77021_27532)">
<path d="M142.858 46.1646C154.761 46.1646 164.41 36.5285 164.41 24.6419C164.41 12.7552 154.761 3.11914 142.858 3.11914C130.954 3.11914 121.305 12.7552 121.305 24.6419C121.305 36.5285 130.954 46.1646 142.858 46.1646Z" fill="white"/>
<path d="M132.616 31.6523C131.91 30.7963 131.269 29.8637 130.726 28.9088L130.643 28.7572C129.489 26.7556 128.747 24.4479 128.498 22.0859L128.488 22.0037C128.275 19.7865 128.864 17.6165 130.062 16.2093C130.999 15.1222 132.348 14.4694 133.74 14.411L133.992 14.4082C135.476 14.4082 136.869 15.0652 137.806 16.1899L137.85 16.2483C139.029 17.7069 139.48 19.8755 139.032 21.9188C138.109 26.1697 135.048 29.5602 132.668 31.637L132.629 31.6675L132.616 31.6537V31.6523Z" fill="#155EEF"/>
<path d="M153.072 31.6517C150.67 29.557 147.608 26.1677 146.685 21.9127C146.237 19.8736 146.692 17.7037 147.879 16.2325L147.893 16.2116C148.846 15.0632 150.242 14.4062 151.753 14.4062H151.821L151.955 14.409C153.367 14.4676 154.716 15.1204 155.65 16.2004C156.851 17.6132 157.441 19.7831 157.228 22.0018L157.221 22.0769C156.97 24.446 156.226 26.7537 155.062 28.7761L155 28.8902C154.45 29.8631 153.809 30.7957 153.1 31.6517L153.089 31.6657L153.072 31.6517Z" fill="#155EEF"/>
<path d="M153.299 34.0511C155.289 35.6016 157.421 36.8779 159.799 37.947C158.319 39.8273 156.528 41.4573 154.5 42.7615C154.486 42.7712 154.47 42.7782 154.456 42.7893C154.142 42.9883 153.826 43.1818 153.502 43.3641C153.479 43.3809 153.451 43.3948 153.423 43.4129C153.095 43.598 152.758 43.7776 152.418 43.946C152.408 43.9488 152.397 43.9557 152.387 43.9599C151.334 44.4832 150.231 44.9161 149.088 45.2599C148.999 45.2877 148.912 45.3114 148.826 45.3351C148.543 45.4144 148.262 45.4937 147.971 45.5619C147.854 45.5898 147.738 45.6176 147.617 45.6441C147.36 45.7025 147.097 45.7582 146.833 45.8055C146.702 45.8292 146.568 45.8542 146.437 45.8737C146.179 45.9183 145.917 45.9558 145.655 45.9907C145.521 46.0074 145.386 46.0254 145.252 46.0393C144.973 46.07 144.695 46.0951 144.412 46.1145C144.295 46.1214 144.178 46.1354 144.061 46.1423C143.661 46.1632 143.262 46.1772 142.855 46.1772H142.827C142.434 46.1744 142.045 46.1632 141.659 46.1423C141.521 46.1354 141.383 46.1214 141.246 46.1117C140.989 46.0909 140.729 46.07 140.476 46.0435C140.321 46.0268 140.166 46.006 140.011 45.9851C139.775 45.9544 139.54 45.9197 139.306 45.8821C139.152 45.8542 138.992 45.8264 138.838 45.7958C138.604 45.754 138.369 45.7067 138.138 45.6552C137.993 45.6204 137.845 45.5898 137.7 45.5522C137.45 45.4909 137.201 45.4255 136.954 45.3532C136.833 45.3183 136.712 45.2877 136.595 45.253C136.268 45.1527 135.944 45.0469 135.623 44.9328C135.588 44.9188 135.551 44.9091 135.516 44.8953C134.765 44.6238 134.038 44.3106 133.329 43.9627C133.301 43.9488 133.274 43.932 133.243 43.9181C132.919 43.7567 132.599 43.5841 132.283 43.4087C132.252 43.3878 132.217 43.3711 132.187 43.353C131.866 43.1679 131.549 42.9786 131.24 42.7782C131.226 42.7685 131.212 42.7615 131.196 42.7503C129.184 41.4545 127.4 39.8343 125.924 37.9609C125.921 37.9609 125.917 37.9581 125.917 37.9539C125.917 37.9539 125.916 37.9515 125.914 37.947C128.298 36.8779 130.429 35.6016 132.433 34.0399L132.436 34.0371L132.532 34.1401C132.863 34.4811 133.204 34.8111 133.572 35.1479C136.134 37.5002 140.001 39.8733 142.859 39.8733C145.718 39.8733 149.58 37.5002 152.143 35.152C152.516 34.8111 152.852 34.4811 153.183 34.1415L153.279 34.0385L153.3 34.0525L153.299 34.0511Z" fill="#155EEF"/>
<path d="M164.416 24.5831V24.7C164.416 25.0062 164.406 25.3124 164.392 25.6145C164.389 25.7383 164.379 25.8622 164.372 25.9819C164.361 26.1879 164.344 26.3883 164.327 26.5901C164.313 26.7238 164.303 26.8588 164.289 26.9924C164.261 27.2234 164.233 27.4531 164.2 27.68C164.172 27.8762 164.142 28.0683 164.111 28.2618C164.08 28.44 164.049 28.6153 164.015 28.7907C163.987 28.9494 163.953 29.0997 163.918 29.2556C163.883 29.4101 163.85 29.5688 163.811 29.7233C163.773 29.8709 163.739 30.0225 163.698 30.1743C163.643 30.3914 163.578 30.6113 163.515 30.8242C163.46 31.0066 163.401 31.1889 163.343 31.3671C163.287 31.5328 163.233 31.6942 163.177 31.8556C163.125 32.0004 163.074 32.141 163.018 32.2816C162.96 32.4333 162.901 32.5808 162.843 32.7284C162.784 32.8689 162.728 33.0109 162.669 33.1473C162.594 33.3199 162.517 33.4842 162.442 33.6498C162.326 33.9045 162.201 34.155 162.077 34.4C162.035 34.4752 162.002 34.5517 161.96 34.6269C161.616 35.2797 161.241 35.9157 160.834 36.5282H160.831C158.466 35.4927 156.365 34.2524 154.426 32.7493V32.7465C155.202 31.8139 155.897 30.8006 156.51 29.7233L156.568 29.6133C157.84 27.4086 158.659 24.8642 158.934 22.2544L158.941 22.1723C159.203 19.4971 158.463 16.8498 156.96 15.0849C155.71 13.6401 153.913 12.7674 152.006 12.6922H151.912C151.86 12.6894 151.802 12.6894 151.727 12.6894C149.729 12.6894 147.849 13.5733 146.551 15.1377L146.528 15.1684C145.034 17.0224 144.448 19.749 145.003 22.2837C145.513 24.6317 146.593 26.7266 147.874 28.5221C149.155 30.3176 150.635 31.8097 151.944 32.9511C151.638 33.267 151.324 33.5733 150.983 33.8864C148.666 36.0076 145.134 38.1567 142.861 38.1567C140.587 38.1567 137.051 36.0076 134.737 33.8864C134.393 33.5733 134.08 33.267 133.777 32.9511C136.376 30.6851 139.692 26.9952 140.715 22.2837C141.27 19.749 140.687 17.0224 139.2 15.1823L139.148 15.1168C137.868 13.5733 135.987 12.6894 133.962 12.6894C133.907 12.6894 133.852 12.6894 133.8 12.6922L133.693 12.695C131.803 12.7674 130.005 13.6401 128.752 15.0877C127.254 16.8484 126.514 19.4957 126.776 22.1709L126.783 22.2572C127.059 24.8642 127.878 27.4086 129.138 29.5925L129.218 29.74C129.819 30.7992 130.516 31.8139 131.29 32.7493C129.337 34.2594 127.248 35.4927 124.886 36.5282C123.502 34.4445 122.471 32.1062 121.879 29.6022C121.858 29.5159 121.837 29.4268 121.821 29.3377C121.776 29.1457 121.734 28.9494 121.697 28.7504C121.673 28.6306 121.652 28.5096 121.631 28.3857C121.583 28.1171 121.542 27.8457 121.504 27.5742C121.476 27.385 121.453 27.1957 121.432 27.0036C121.415 26.8629 121.404 26.721 121.39 26.5804C121.373 26.3841 121.359 26.1852 121.345 25.9861C121.338 25.8622 121.329 25.7383 121.324 25.6145C121.31 25.3124 121.301 25.0062 121.301 24.7V24.5831C121.301 24.274 121.31 23.9706 121.324 23.6644C121.327 23.5405 121.338 23.4208 121.345 23.297C121.359 23.0937 121.373 22.8905 121.39 22.6887C121.404 22.5551 121.413 22.42 121.427 22.2865C121.455 22.0554 121.483 21.8286 121.517 21.5988C121.544 21.4068 121.576 21.2133 121.606 21.0212C121.637 20.843 121.667 20.6635 121.702 20.4881C121.733 20.3337 121.763 20.1792 121.798 20.0232C121.833 19.8688 121.867 19.7143 121.905 19.5583C121.943 19.4067 121.978 19.2563 122.02 19.1074C122.078 18.8875 122.14 18.6704 122.205 18.4546C122.257 18.2722 122.315 18.0941 122.374 17.9118C122.43 17.7503 122.484 17.5847 122.543 17.4232C122.591 17.2826 122.646 17.1378 122.697 16.9973C122.756 16.8498 122.814 16.698 122.876 16.5505C122.931 16.4099 122.986 16.268 123.049 16.1315C123.121 15.9631 123.196 15.7975 123.276 15.6291C123.393 15.3785 123.513 15.1266 123.641 14.8789C123.679 14.8037 123.716 14.7271 123.755 14.6547C125.495 11.3393 128.073 8.53325 131.213 6.5192C131.227 6.50945 131.244 6.49832 131.258 6.48858C131.572 6.28954 131.889 6.09607 132.211 5.91373C132.239 5.89981 132.263 5.88311 132.291 5.86919C132.621 5.68407 132.956 5.50452 133.296 5.3361C133.306 5.32914 133.317 5.32635 133.327 5.31939C134.381 4.80022 135.486 4.36317 136.628 4.01938C136.715 3.99571 136.801 3.97066 136.891 3.94699C137.169 3.86487 137.455 3.78832 137.741 3.72012C137.858 3.6895 137.975 3.66445 138.095 3.638C138.353 3.57954 138.619 3.52386 138.88 3.47654C139.013 3.45288 139.145 3.42782 139.276 3.40416C139.537 3.36241 139.796 3.32483 140.06 3.29003C140.192 3.27332 140.325 3.25245 140.46 3.23853C140.739 3.2079 141.022 3.18285 141.301 3.16615C141.421 3.15641 141.535 3.14527 141.655 3.13831C142.05 3.11465 142.451 3.10352 142.856 3.10352H142.884C143.277 3.10352 143.666 3.11743 144.055 3.13831C144.193 3.14527 144.327 3.15919 144.465 3.16893C144.723 3.18564 144.982 3.20651 145.236 3.23435C145.39 3.25106 145.545 3.27611 145.704 3.2956C145.938 3.32622 146.172 3.35684 146.407 3.3986C146.565 3.42226 146.72 3.45009 146.875 3.48072C147.109 3.52526 147.343 3.57398 147.575 3.62547C147.719 3.6561 147.867 3.69089 148.012 3.72568C148.263 3.78693 148.511 3.85652 148.759 3.92473C148.879 3.95952 149 3.99015 149.118 4.02773C149.445 4.12794 149.768 4.23372 150.089 4.34786C150.124 4.3576 150.162 4.37152 150.196 4.38265C150.948 4.65407 151.677 4.96725 152.383 5.318C152.414 5.33193 152.442 5.34584 152.47 5.35976C152.797 5.5254 153.116 5.69381 153.43 5.87197C153.465 5.88867 153.496 5.90955 153.526 5.92765C153.847 6.10999 154.163 6.30207 154.472 6.5025C154.489 6.50945 154.503 6.5192 154.517 6.52616C156.528 7.82201 158.312 9.44495 159.789 11.3156C159.789 11.3156 159.791 11.3189 159.796 11.3253C161.706 13.7431 163.104 16.5797 163.834 19.6739C163.855 19.763 163.876 19.8493 163.897 19.9383C163.938 20.1346 163.978 20.3309 164.016 20.5257C164.039 20.6454 164.06 20.7693 164.081 20.8904C164.13 21.1618 164.175 21.4304 164.209 21.7019C164.236 21.8939 164.26 22.0832 164.281 22.2725C164.298 22.4131 164.309 22.5551 164.323 22.6956C164.34 22.8947 164.358 23.091 164.368 23.29C164.375 23.4139 164.384 23.5377 164.388 23.6616C164.402 23.9679 164.412 24.2699 164.412 24.5803L164.416 24.5831Z" fill="#155EEF"/>
</g>
<path fill-rule="evenodd" clip-rule="evenodd" d="M94.1708 3.81043L95.373 3.18311H95.3746C95.8279 2.9477 96.3711 3.27589 96.3711 3.78688V20.4778C96.3711 22.6436 95.7324 24.3524 94.4565 25.6001C93.2566 26.7467 91.6748 27.3201 89.7097 27.3201H87.4892C85.3456 27.3201 83.6855 26.6318 82.5127 25.2554C81.5946 26.6318 80.1138 27.3201 78.0718 27.3201H48.5958C46.298 27.3201 44.5756 26.5432 43.4275 24.9881C42.228 26.5432 40.4918 27.3201 38.2217 27.3201H24.7843C24.579 29.5108 23.4294 31.2819 21.3368 32.6335C19.3206 33.9338 16.7301 34.5833 13.5656 34.5833C9.637 34.5833 6.67496 33.4353 4.685 31.1421C3.20535 29.4346 2.46484 27.3311 2.46484 24.8343C2.46484 22.7558 2.96823 20.9528 3.97915 19.424C4.08454 19.2647 4.25511 19.1553 4.44232 19.118L5.12737 18.9808C5.70286 18.8659 6.14661 19.46 5.88729 19.9862C5.16065 21.4638 4.79871 23.0161 4.79871 24.6446C4.79871 26.989 5.60162 28.8627 7.21023 30.2641C8.7412 31.6143 10.7825 32.2901 13.5642 32.2901C16.346 32.2901 18.5274 31.7029 20.1096 30.5314C21.2841 29.6645 21.9733 28.5941 22.1772 27.3201H19.4176C18.8948 27.3201 18.5579 26.7689 18.7978 26.305L19.3025 25.3273C19.4232 25.0961 19.6617 24.9506 19.9224 24.9506H37.9138C40.7206 24.9506 42.1254 23.498 42.1254 20.5927V12.7064C42.1254 12.4543 42.2654 12.2231 42.4887 12.1067L43.6993 11.4753C44.1499 11.2398 44.6907 11.5666 44.6907 12.0748V20.5927C44.6907 23.498 46.0927 24.9506 48.9009 24.9506H60.3844V4.41142C60.3844 4.1594 60.5203 3.92536 60.7408 3.80073L61.7087 3.25512C62.1774 2.99063 62.7571 3.32852 62.7571 3.86582V18.7177C65.7428 13.2395 69.699 10.499 74.6247 10.499C77.4828 10.499 79.7544 11.4808 81.4394 13.443C82.8659 15.1256 83.5815 17.2027 83.5815 19.6746V20.6689C83.5815 23.5243 84.9987 24.9506 87.8323 24.9506H89.4404C92.3501 24.9506 93.8045 23.4482 93.8045 20.4404V4.4142C93.8045 4.1594 93.9458 3.92813 94.1708 3.81043ZM80.3295 24.0893C80.789 23.516 81.0187 22.465 81.0187 20.9362L81.0172 20.9348V19.6732C81.0172 17.5323 80.3412 15.8124 78.9884 14.5121C77.8405 13.3904 76.3983 12.8296 74.6636 12.8296C71.6766 12.8296 69.0223 14.2698 66.6996 17.1501C64.9398 19.3173 63.6391 21.9166 62.7959 24.9493H77.8033C79.0287 24.9493 79.8708 24.6626 80.3295 24.0893Z" fill="#155EEF"/>
<path d="M104.826 3.18173L103.624 3.80904C103.4 3.92675 103.258 4.15801 103.258 4.41142V26.6332C103.258 27.0113 103.566 27.3187 103.946 27.3187H105.136C105.516 27.3187 105.824 27.0113 105.824 26.6332V3.78549C105.824 3.2745 105.28 2.94492 104.826 3.18173Z" fill="#155EEF"/>
<path d="M11.1557 37.7559C10.1101 37.7559 9.58594 38.2779 9.58594 39.3234C9.58594 40.369 10.1101 40.891 11.1557 40.891C12.2013 40.891 12.6493 40.369 12.6493 39.3234C12.6493 38.2779 12.1514 37.7559 11.1557 37.7559Z" fill="#155EEF"/>
<path d="M15.5179 37.7559C14.4987 37.7559 13.9883 38.2779 13.9883 39.3234C13.9883 40.369 14.4987 40.891 15.5179 40.891C16.5371 40.891 17.0502 40.369 17.0502 39.3234C17.0502 38.2779 16.5385 37.7559 15.5179 37.7559Z" fill="#155EEF"/>
<path d="M43.0073 31.3359C41.9604 31.3359 41.4375 31.8455 41.4375 32.8647C41.4375 33.9352 41.9604 34.4698 43.0073 34.4698C44.0543 34.4698 44.4994 33.9352 44.4994 32.8647C44.4994 31.7943 44.0016 31.3359 43.0073 31.3359Z" fill="#155EEF"/>
<path fill-rule="evenodd" clip-rule="evenodd" d="M60.9891 43.6006C60.7622 43.9975 60.4858 44.3531 60.1584 44.669C59.8298 44.9847 59.4692 45.2547 59.0754 45.4777C58.6816 45.702 58.2572 45.8724 57.8038 45.9914C57.3503 46.1106 56.8843 46.1701 56.4073 46.1701C55.6308 46.1701 54.9014 46.0205 54.2177 45.7228C53.534 45.4251 52.9364 45.0193 52.4233 44.5069C51.9102 43.9945 51.5039 43.395 51.2057 42.7094C50.9075 42.024 50.7578 41.297 50.7578 40.5284C50.7578 39.7599 50.9062 39.0342 51.2057 38.3515C51.5039 37.6689 51.9102 37.072 52.4233 36.5596C52.9364 36.0472 53.5368 35.6415 54.2233 35.3438C54.9097 35.046 55.6377 34.8965 56.4073 34.8965C56.8788 34.8965 57.3378 34.9574 57.7857 35.0793C58.2336 35.2011 58.6552 35.3743 59.0518 35.5986C59.4484 35.8215 59.8131 36.0929 60.1446 36.4115C60.476 36.7299 60.7575 37.0886 60.9905 37.4888V35.2897C60.9905 35.1112 61.0765 35.0211 61.2498 35.0211H61.6977C61.8947 35.0211 61.9931 35.1112 61.9931 35.2897V45.6868C61.9931 45.7823 61.9626 45.8516 61.8988 45.8959C61.8364 45.9402 61.7601 45.9637 61.67 45.9637H61.3205C61.1001 45.9637 60.9891 45.8599 60.9891 45.6508V43.6006ZM59.644 37.2714C60.0711 37.6966 60.4095 38.1909 60.6605 38.7504V38.7518C60.9114 39.3112 61.0363 39.8928 61.0363 40.5298C61.0363 41.1668 60.9128 41.7706 60.6646 42.3398C60.4164 42.9089 60.0794 43.406 59.6523 43.8326C59.2252 44.259 58.7287 44.5942 58.1615 44.8421C57.5944 45.09 56.98 45.2132 56.3532 45.2132C55.7265 45.2132 55.1371 45.0844 54.5852 44.8282C54.0333 44.5721 53.5493 44.23 53.1347 43.8007C52.72 43.3714 52.3928 42.8729 52.1542 42.3038C51.9157 41.7346 51.7965 41.1308 51.7965 40.5118C51.7965 39.8928 51.9199 39.3001 52.1681 38.7379C52.4163 38.1743 52.7492 37.6799 53.1666 37.2534C53.584 36.8268 54.0693 36.489 54.6213 36.2383C55.1732 35.9877 55.757 35.8631 56.3713 35.8631H56.399C57.0202 35.87 57.6096 35.9988 58.1671 36.2522C58.7246 36.5056 59.2169 36.8449 59.644 37.2714Z" fill="#155EEF"/>
<path d="M64.5781 32.1337C64.5781 32.0382 64.6003 31.9607 64.6446 31.9011C64.689 31.8415 64.7597 31.8125 64.8554 31.8125H65.3034C65.399 31.8125 65.4698 31.8429 65.5141 31.9066C65.5585 31.969 65.5807 32.0451 65.5807 32.1351V45.6438C65.5807 45.7393 65.5585 45.8169 65.5141 45.8764C65.4698 45.936 65.399 45.965 65.3034 45.965H64.8554C64.7597 45.965 64.689 45.9373 64.6446 45.8806C64.6003 45.8238 64.5781 45.7449 64.5781 45.6438V32.1337Z" fill="#155EEF"/>
<path d="M69.9696 35.0851H71.9387C72.0219 35.0851 72.0871 35.1058 72.1357 35.1473C72.1842 35.1889 72.2078 35.2582 72.2078 35.3523V35.7013C72.2078 35.7733 72.1828 35.8467 72.1315 35.9201C72.0816 35.9949 72.0136 36.0323 71.9304 36.0323H69.9696V43.6043C69.9696 43.7594 69.989 43.9201 70.0278 44.0876C70.0667 44.2552 70.1318 44.4075 70.2247 44.5487C70.3177 44.6886 70.4397 44.8035 70.5922 44.8935C70.7448 44.9822 70.9334 45.0307 71.1608 45.0362L71.4825 45.0445C71.5782 45.0445 71.6517 45.0542 71.7016 45.0722C71.7515 45.0902 71.789 45.1096 71.8098 45.1303C71.8306 45.1511 71.8417 45.1746 71.8458 45.2024C71.8486 45.2287 71.85 45.255 71.85 45.2785V45.7078C71.85 45.8034 71.832 45.874 71.7959 45.9183C71.7599 45.9626 71.6406 45.9848 71.4381 45.9848C71.3189 45.9848 71.2079 45.9834 71.1067 45.9806C71.0055 45.9779 70.9098 45.9696 70.8197 45.9585C70.516 45.9224 70.2469 45.838 70.014 45.7037C69.781 45.5693 69.5841 45.4045 69.4232 45.2079C69.2623 45.0113 69.1389 44.7869 69.0557 44.5377C68.9725 44.287 68.9309 44.028 68.9309 43.7594V36.0351H67.4263C67.3486 36.0351 67.2821 36.0032 67.2252 35.9408C67.1684 35.8785 67.1406 35.7996 67.1406 35.704V35.3648C67.1406 35.2637 67.1684 35.1917 67.2252 35.1501C67.2821 35.1086 67.3486 35.0878 67.4263 35.0878H68.9309V32.7462C68.9309 32.6562 68.9503 32.5896 68.9891 32.5453C69.028 32.501 69.0987 32.4637 69.1999 32.4332L69.6825 32.3085C69.7005 32.303 69.7241 32.2988 69.7546 32.2988C69.8267 32.2988 69.8794 32.3293 69.9155 32.393C69.9516 32.4554 69.9696 32.5287 69.9696 32.6118V35.0878V35.0851Z" fill="#155EEF"/>
<path fill-rule="evenodd" clip-rule="evenodd" d="M73.5228 31.6169C73.4868 31.6641 73.4688 31.7236 73.4688 31.7956V32.4299C73.4688 32.5904 73.5547 32.6708 73.7281 32.6708H74.3729C74.4381 32.6708 74.4922 32.6555 74.5338 32.6223C74.5754 32.589 74.5962 32.5254 74.5962 32.4299V31.8039C74.5962 31.6322 74.5213 31.5449 74.3729 31.5449H73.7197C73.6241 31.5449 73.5589 31.5698 73.5228 31.6169ZM73.8002 35.0222C73.6157 35.0222 73.5228 35.1205 73.5228 35.3171H73.5242V45.6615C73.5242 45.8637 73.6171 45.9648 73.8016 45.9648H74.3563C74.5282 45.9648 74.6156 45.8637 74.6156 45.6615V35.3171C74.6156 35.2271 74.5795 35.1565 74.5074 35.1025C74.4367 35.0485 74.3563 35.0222 74.2661 35.0222H73.8002Z" fill="#155EEF"/>
<path fill-rule="evenodd" clip-rule="evenodd" d="M77.7683 31.8125C77.6131 31.8125 77.5352 31.89 77.5352 32.0451V45.6881C77.5352 45.8723 77.6278 45.965 77.8125 45.965H78.2604C78.4451 45.965 78.5374 45.8723 78.5374 45.6881V43.6137C78.657 43.8048 78.7873 43.9959 78.927 44.1897C79.0675 44.3836 79.2119 44.5484 79.3617 44.6855C79.8677 45.1674 80.4405 45.5372 81.08 45.7934C81.7187 46.0496 82.3955 46.1783 83.1127 46.1783C83.888 46.1783 84.6176 46.0302 85.3005 45.7352C85.9843 45.4402 86.5811 45.0387 87.091 44.5291C87.6017 44.0181 88.0061 43.4212 88.3041 42.7357C88.6029 42.0502 88.7527 41.3191 88.7527 40.545C88.7527 39.7709 88.6029 39.0424 88.3041 38.3598C88.0061 37.6771 87.6017 37.0816 87.091 36.572C86.5811 36.0624 85.9843 35.658 85.3005 35.3603C84.6183 35.0626 83.888 34.913 83.1127 34.913C82.64 34.913 82.179 34.9739 81.7288 35.0958C81.2779 35.219 80.8565 35.3922 80.4622 35.6151C80.0687 35.8381 79.7078 36.1081 79.3795 36.4238C79.0512 36.7409 78.771 37.0955 78.5374 37.4887V32.0354C78.5374 31.8872 78.4738 31.8125 78.3488 31.8125H77.7683ZM86.3452 37.2533C86.7627 37.6798 87.0926 38.1756 87.334 38.742L87.3324 38.7406C87.5738 39.3069 87.6941 39.9205 87.6941 40.5463C87.6941 41.1723 87.5753 41.7678 87.3363 42.3341C87.098 42.9005 86.7736 43.3962 86.3615 43.8228C85.9502 44.2493 85.4674 44.5872 84.9156 44.8378C84.3638 45.0885 83.777 45.2131 83.139 45.2131C82.5011 45.2131 81.898 45.0913 81.3307 44.8461C80.7649 44.6024 80.2682 44.2701 79.8452 43.8491C79.4214 43.4295 79.0869 42.9379 78.8386 42.3743C78.5902 41.8121 78.4668 41.1959 78.4668 40.5643C78.4668 39.9329 78.5879 39.3319 78.8293 38.7627C79.0706 38.1936 79.4005 37.6951 79.818 37.2658C80.2364 36.8365 80.7261 36.4958 81.2864 36.2424C81.8476 35.9904 82.4467 35.863 83.0863 35.863C83.7258 35.863 84.3234 35.9876 84.8822 36.2382C85.4395 36.4889 85.9276 36.8268 86.3452 37.2533Z" fill="#155EEF"/>
<path fill-rule="evenodd" clip-rule="evenodd" d="M91.3305 31.8125C91.1753 31.8125 91.0977 31.89 91.0977 32.0451V45.6881C91.0977 45.8723 91.1908 45.965 91.3747 45.965H91.8226C92.0073 45.965 92.1004 45.8723 92.1004 45.6881V43.6137C92.2191 43.8048 92.3495 43.9959 92.49 44.1897C92.6297 44.3836 92.7741 44.5484 92.9239 44.6855C93.4299 45.1674 94.0027 45.5372 94.6422 45.7934C95.2809 46.0496 95.9577 46.1783 96.6749 46.1783C97.4502 46.1783 98.1797 46.0302 98.8635 45.7352C99.5465 45.4402 100.143 45.0387 100.653 44.5291C101.164 44.0181 101.569 43.4212 101.867 42.7357C102.165 42.0502 102.315 41.3191 102.315 40.545C102.315 39.7709 102.165 39.0424 101.867 38.3598C101.569 37.6771 101.164 37.0816 100.653 36.572C100.143 36.0624 99.5465 35.658 98.8635 35.3603C98.1813 35.0626 97.4502 34.913 96.6749 34.913C96.2022 34.913 95.742 34.9739 95.291 35.0958C94.8401 35.219 94.4187 35.3922 94.0252 35.6151C93.6309 35.8381 93.2708 36.1081 92.9417 36.4238C92.6134 36.7409 92.3332 37.0955 92.1004 37.4887V32.0354C92.1004 31.8872 92.036 31.8125 91.9118 31.8125H91.3305ZM99.9074 37.2533C100.325 37.6798 100.655 38.1756 100.896 38.742V38.7406C101.138 39.3069 101.258 39.9205 101.258 40.5463C101.258 41.1723 101.139 41.7678 100.9 42.3341C100.66 42.9005 100.336 43.3962 99.9237 43.8228C99.5123 44.2493 99.0296 44.5872 98.4778 44.8378C97.926 45.0885 97.3392 45.2131 96.7012 45.2131C96.0633 45.2131 95.4602 45.0913 94.8929 44.8461C94.3271 44.6024 93.8304 44.2701 93.4082 43.8491C92.9836 43.4295 92.6491 42.9379 92.4008 42.3743C92.1532 41.8121 92.029 41.1959 92.029 40.5643C92.029 39.9329 92.1501 39.3319 92.3914 38.7627C92.6328 38.1936 92.9627 37.6951 93.3802 37.2658C93.7986 36.8365 94.2883 36.4958 94.8486 36.2424C95.4106 35.9904 96.0089 35.863 96.6485 35.863C97.288 35.863 97.8856 35.9876 98.4444 36.2382C99.0017 36.4889 99.4898 36.8268 99.9074 37.2533Z" fill="#155EEF"/>
<path fill-rule="evenodd" clip-rule="evenodd" d="M104.5 31.6169C104.463 31.6641 104.445 31.7236 104.445 31.7956V32.4299C104.445 32.5904 104.531 32.6708 104.705 32.6708H105.349C105.415 32.6708 105.469 32.6555 105.51 32.6223C105.552 32.589 105.573 32.5254 105.573 32.4299V31.8039C105.573 31.6322 105.498 31.5449 105.349 31.5449H104.697C104.601 31.5449 104.535 31.5698 104.5 31.6169ZM104.777 35.0222C104.593 35.0222 104.5 35.1205 104.5 35.3171H104.501V45.6615C104.501 45.8637 104.594 45.9648 104.778 45.9648H105.333C105.505 45.9648 105.592 45.8637 105.592 45.6615V35.3171C105.592 35.2271 105.556 35.1565 105.485 35.1025C105.413 35.0485 105.333 35.0222 105.243 35.0222H104.777Z" fill="#155EEF"/>
</g>
</g>
<defs>
<filter id="filter0_dd_77021_27532" x="117.263" y="0.411359" width="51.1898" height="51.1507" filterUnits="userSpaceOnUse" color-interpolation-filters="sRGB">
<feFlood flood-opacity="0" result="BackgroundImageFix"/>
<feColorMatrix in="SourceAlpha" type="matrix" values="0 0 0 0 0 0 0 0 0 0 0 0 0 0 0 0 0 0 127 0" result="hardAlpha"/>
<feOffset dy="1.34609"/>
<feGaussianBlur stdDeviation="1.34609"/>
<feColorMatrix type="matrix" values="0 0 0 0 0.0627451 0 0 0 0 0.0941176 0 0 0 0 0.156863 0 0 0 0.06 0"/>
<feBlend mode="normal" in2="BackgroundImageFix" result="effect1_dropShadow_77021_27532"/>
<feColorMatrix in="SourceAlpha" type="matrix" values="0 0 0 0 0 0 0 0 0 0 0 0 0 0 0 0 0 0 127 0" result="hardAlpha"/>
<feOffset dy="1.34609"/>
<feGaussianBlur stdDeviation="2.01912"/>
<feColorMatrix type="matrix" values="0 0 0 0 0.0627451 0 0 0 0 0.0941176 0 0 0 0 0.156863 0 0 0 0.1 0"/>
<feBlend mode="normal" in2="effect1_dropShadow_77021_27532" result="effect2_dropShadow_77021_27532"/>
<feBlend mode="normal" in="SourceGraphic" in2="effect2_dropShadow_77021_27532" result="shape"/>
</filter>
<clipPath id="clip0_77021_27532">
<rect width="169.19" height="52" fill="white"/>
</clipPath>
<clipPath id="clip1_77021_27532">
<rect width="169.194" height="52" fill="white" transform="translate(-0.00390625)"/>
</clipPath>
</defs>
</svg>
