<svg width="139" height="94" viewBox="0 0 139 94" fill="none" xmlns="http://www.w3.org/2000/svg">
<g clip-path="url(#clip0_439_1322)">
<path d="M91.053 78.8579C82.3134 82.6201 65.5603 85.8204 55.946 86.2419C38.1152 87.0224 19.7847 78.1008 42.1063 64.1681C48.2529 70.9667 42.3484 69.3587 39.3102 73.1756C35.5223 77.9369 42.6295 79.4121 46.4644 80.0209C58.7342 81.9879 85.9373 77.2032 95.6766 69.0075C104.776 61.3503 88.9286 61.9123 87.9836 60.9991C87.7649 60.7883 87.7337 55.7148 88.5615 55.1059C89.1317 54.6922 93.1618 55.5118 94.1536 55.7538C104.518 58.2593 108.064 65.7994 99.3865 73.3317C97.7932 74.7133 92.865 78.0774 91.0608 78.8579H91.053Z" fill="#E6AA4A"/>
<path d="M138.453 45.6457L137.867 51.7808C121.716 48.3698 105.393 48.4791 89.2098 51.7808C88.8271 51.4374 91.0764 46.2077 91.9356 45.5833C93.6929 44.3188 105.174 43.265 107.97 43.1401C118.209 42.664 128.394 44.0222 138.453 45.6535V45.6457Z" fill="#E6AA4A"/>
<path d="M32.3435 50.1182C32.8746 50.329 34.8974 52.8424 37.0296 56.1207C37.3811 56.6592 37.8184 57.51 37.4592 57.9237C36.4438 59.0867 17.3088 50.1651 14.8799 48.7991C12.3259 47.3629 1.07144 40.1897 0.181072 38.2149C-0.615569 36.4352 1.36822 33.9843 3.17238 33.3833C6.67917 32.2203 10.3343 38.0978 17.3479 43.2572C22.3698 46.957 23.7288 46.6838 32.3513 50.1182H32.3435Z" fill="#E6AA4A"/>
<path d="M122.809 0.670538C121.856 -0.351978 119.896 0.0617115 119.217 0.20221C113.703 1.34181 96.0124 18.3812 90.1079 22.8225C87.1869 25.0158 66.1616 43.5382 47.1516 38.332C38.2714 35.8967 31.8045 29.9333 31.8045 29.9333C27.0091 25.5154 22.6353 20.4731 15.2469 15.1887C13.7864 14.1428 11.4433 13.4481 10.1937 14.3848C9.15492 15.1575 8.76441 16.8279 9.42047 19.1695C10.4592 22.9006 23.5648 36.1777 26.9778 40.4004C31.1094 45.5208 35.5769 51.1642 39.2086 56.4641C44.1212 63.6373 47.8779 71.513 52.6578 78.7564C57.4923 78.9047 63.6858 78.655 70.7228 77.2501C77.3224 75.9309 82.8366 73.964 87.0853 72.1063C87.4055 68.0318 85.9216 64.3788 86.1091 60.0468C86.2496 56.7607 86.7104 53.9039 87.4602 51.25C88.8739 46.2311 90.8967 42.8904 93.9115 37.9963C96.6763 33.5082 99.1755 30.3158 101.027 27.9663C103.627 24.6724 105.666 22.081 108.634 19.1539C115.522 12.3632 121.669 9.4205 123.083 4.15958C123.262 3.49612 123.754 1.64622 122.825 0.654928L122.809 0.670538Z" fill="url(#paint0_linear_439_1322)"/>
<path d="M55.9459 86.2419C57.0003 90.3554 57.2424 92.7439 61.9598 93.4698C68.8406 94.5235 83.1959 92.1506 89.8111 89.6217C98.5586 86.2731 95.0987 85.1023 91.053 78.8657C82.3133 82.628 65.5603 85.8282 55.9459 86.2497V86.2419Z" fill="url(#paint1_linear_439_1322)"/>
<path d="M57.2423 4.17519H57.2345C49.2158 4.17519 42.7153 10.6717 42.7153 18.6856V18.6934C42.7153 26.7072 49.2158 33.2038 57.2345 33.2038H57.2423C65.2611 33.2038 71.7615 26.7072 71.7615 18.6934V18.6856C71.7615 10.6717 65.2611 4.17519 57.2423 4.17519Z" fill="url(#paint2_linear_439_1322)"/>
</g>
<defs>
<linearGradient id="paint0_linear_439_1322" x1="24.3302" y1="39.4013" x2="117.545" y2="39.4013" gradientUnits="userSpaceOnUse">
<stop offset="0.17" stop-color="#84C07A"/>
<stop offset="1" stop-color="#359C6D"/>
</linearGradient>
<linearGradient id="paint1_linear_439_1322" x1="55.9459" y1="86.2887" x2="95.2627" y2="86.2887" gradientUnits="userSpaceOnUse">
<stop stop-color="#40AE7A"/>
<stop offset="1" stop-color="#359C6D"/>
</linearGradient>
<linearGradient id="paint2_linear_439_1322" x1="42.7153" y1="18.6856" x2="71.7615" y2="18.6856" gradientUnits="userSpaceOnUse">
<stop offset="0.17" stop-color="#84C07A"/>
<stop offset="1" stop-color="#359C6D"/>
</linearGradient>
<clipPath id="clip0_439_1322">
<rect width="138.453" height="93.7266" fill="white"/>
</clipPath>
</defs>
</svg>
